# xmcd
# Track frame offsets:
# 150
# 12773
# 21975
# 33755
# 47490
# 59730
# 70969
# 80429
# 89405
# 100219
# 113688
# 126369
# 136854
# 153855
# 165202
# 179410
# 190171
# 202496
# 214200
# 226139
# 238552
# 251137
# 263236
# 275906
# 286477
# 298588
# 309618
#
# Disc length: 4290 seconds
# Revision: 0
# Processed by: cddbd v1.5.2PL0 Copyright (c) Steve Scherf et al.
# Submitted via: VisiTrax 2.11.2.271 - For more info visit www.synapsa.com
#
DISCID=8e10c01b
DTITLE=Various Artist - 101 Country Classics [CD3)
DYEAR=2011
DGENRE=
TTITLE0=Johnny Cash - I Walk The Line
TTITLE1=Frankie Lane - Rawhide
TTITLE2=Tennessee Ernie Ford - Sixteen Tons
TTITLE3=Jimmy Dean - Big Bad John (Album Version)
TTITLE4=Faron Young - I Fall To Pieces
TTITLE5=Stonewall Jackson - Waterloo
TTITLE6=Frank Ifield - I Remember You
TTITLE7=Jerry Lee Lewis - Jambalaya (On The Bayou)
TTITLE8=Ricky Nelson - Travellin Man
TTITLE9=Claude King - Wolverton Mountain (Album Version)
TTITLE10=Tex Ritter - High Noon (Do Not Forsake Me)
TTITLE11=Ferlin Husky - Wings Of A Dove
TTITLE12=John Ashcroft - Little Boy Lost
TTITLE13=Don Gibson - Oh Lonesome Me
TTITLE14=Les Paul and Mary Ford - Tennessee Waltz
TTITLE15=Slim Whitman - Rose Marie
TTITLE16=Jack Stott and The Chantones - What In The Worlds Come Over You
TTITLE17=Hank Thompson - Hangover Tavern
TTITLE18=Sonny James - Young Love
TTITLE19=Jeanne Black - Hell Have To Stay
TTITLE20=Walter Brennan and The Johnny Mann Singers - Old Rivers
TTITLE21=George Jones and Melba Montgomery - We Must Have Been Out Of Our Minds
TTITLE22=Wanda Jackson - Funny How Time Slips Away
TTITLE23=The Statler Brothers - Flowers On The Wall (Album Version)
TTITLE24=The Willis Brothers - Give Me Forty Acres (To Turn This Rig Around)
TTITLE25=Dave Dudley - Six Days On The Road
TTITLE26=Glen Campbell - By The Time I Get To Phoenix
EXTD=
EXTT0=
EXTT1=
EXTT2=
EXTT3=
EXTT4=
EXTT5=
EXTT6=
EXTT7=
EXTT8=
EXTT9=
EXTT10=
EXTT11=
EXTT12=
EXTT13=
EXTT14=
EXTT15=
EXTT16=
EXTT17=
EXTT18=
EXTT19=
EXTT20=
EXTT21=
EXTT22=
EXTT23=
EXTT24=
EXTT25=
EXTT26=
PLAYORDER=
